<svg xmlns="http://www.w3.org/2000/svg" xmlns:xlink="http://www.w3.org/1999/xlink" version="1.1" width="16.21364" height="16.21364" viewBox="0,0,16.21364,16.21364"><g><g data-paper-data="{&quot;isPaintingLayer&quot;:true}" fill-rule="nonzero" stroke-linejoin="miter" stroke-miterlimit="10" stroke-dasharray="" stroke-dashoffset="0" style="mix-blend-mode: normal"><path d="M231.8233,188.21756v-16.21364h16.21364v16.21364z" fill="#424242" stroke-width="0" stroke-linecap="butt" stroke="none" transform="matrix(1,0,0,1,-231.8233,-172.00392)"/><path d="M 11.4516 12.6547 C 9.3843 12.8439 7.667 12.9386 6.2998 12.9386 C 5.3915 12.9386 4.7221 12.7257 4.2916 12.2999 C 3.8658 11.8694 3.653 11.2 3.653 10.2917 L 3.653 5.8353 C 3.653 4.8608 3.8729 4.1535 4.3129 3.7136 C 4.7576 3.2736 5.4672 3.0536 6.4418 3.0536 L 11.4516 3.0536 L 11.4516 4.998 L 6.9953 4.998 C 6.4418 4.998 6.165 5.2771 6.165 5.8353 L 6.165 10.2917 C 6.165 10.5046 6.2265 10.6749 6.3495 10.8026 C 6.4772 10.9256 6.6381 10.9871 6.832 10.9871 C 7.026 10.9871 7.2389 10.9848 7.4707 10.98 C 7.7025 10.9753 7.9438 10.9682 8.1945 10.9587 C 8.4452 10.9493 8.6983 10.9398 8.9538 10.9304 C 9.2093 10.9209 9.538 10.902 9.9402 10.8736 C 10.347 10.8452 10.8508 10.8144 11.4516 10.7813 Z " fill="#b9b9b9" stroke-width="1" stroke-linecap="square" stroke="none"/></g></g></svg>